<svg preserveAspectRatio="none" width="100%" height="100%" overflow="visible" style="display: block;" viewBox="0 0 6.87501 3.75002" fill="none" xmlns="http://www.w3.org/2000/svg">
<g id="Group">
<path id="Vector" d="M3.43752 3.75002C3.39648 3.75006 3.35583 3.74199 3.31792 3.72628C3.28 3.71057 3.24556 3.68752 3.21658 3.65846L0.091582 0.533457C-0.0305273 0.411348 -0.0305273 0.213613 0.091582 0.091582C0.213691 -0.0304492 0.411426 -0.0305273 0.533457 0.091582L3.43752 2.99564L6.34158 0.091582C6.46369 -0.0305273 6.66143 -0.0305273 6.78346 0.091582C6.90549 0.213691 6.90557 0.411426 6.78346 0.533457L3.65846 3.65846C3.62948 3.68752 3.59504 3.71057 3.55712 3.72628C3.51921 3.74199 3.47856 3.75006 3.43752 3.75002Z" fill="var(--fill-0, white)"/>
</g>
</svg>
