<svg preserveAspectRatio="none" width="100%" height="100%" overflow="visible" style="display: block;" viewBox="0 0 304 80" fill="none" xmlns="http://www.w3.org/2000/svg">
<g id="logo" clip-path="url(#clip0_0_159)">
<path id="Vector" d="M120.441 34.5954C122.114 30.4216 131.789 1.60913 133.214 0.00999078C134.274 -0.17494 134.813 0.504269 135.173 1.42081C135.785 2.98069 136.305 4.58544 136.879 6.162L140.536 16.1347L154.288 53.9792L155.97 54.0278L156.01 17.9976C156.01 13.0651 155.87 7.38818 156.029 2.5329C153.684 2.5571 151.059 2.60625 148.692 2.59902C148.355 2.59799 148.219 2.42708 147.964 2.22503C147.824 1.859 147.819 1.9998 147.942 1.68352C148.846 1.31203 161.581 1.409 163.402 1.47645C166.106 5.57326 186.806 41.4836 187.82 42.158C188.151 41.8809 188.283 41.8888 188.722 41.8442L188.905 42.0369C188.942 43.8516 189.135 55.3615 188.716 56.1563C187.155 56.5263 184.899 51.7311 184.116 50.4354C182.123 47.1627 180.15 43.8774 178.198 40.5795L162.868 15.0639C161.155 12.2287 158.842 7.98932 157.049 5.34937C157.292 21.4767 156.826 37.8685 157.111 54.0098C158.248 54.0006 164.659 53.8502 165.194 54.1885L165.281 54.3073C165.229 54.5561 165.197 54.8314 164.94 54.9127C163.714 55.3015 160.92 55.162 159.715 55.1679C156.587 55.1855 153.46 55.1838 150.332 55.1635C147.09 55.1436 141.656 55.2948 138.613 55.0402C138.304 54.7645 138.376 54.9108 138.348 54.4916C139.006 53.6321 144.948 53.999 146.357 54.0188C144.286 47.465 141.248 39.5399 138.857 33.0416L122.185 33.0745C121.945 33.7527 121.656 34.5091 121.44 35.1865C129.424 40.4681 128.352 51.9388 122.5 58.3072C118.865 62.2636 113.526 64.1519 108.2 63.9039C107.149 63.9086 106.384 63.9255 105.333 63.7777C101.35 64.263 96.8927 60.9422 93.0178 61.3615C92.145 61.456 91.8334 63.1756 90.6175 62.7263C90.3213 57.7953 90.6779 52.5117 90.553 47.5527C90.5412 47.0897 90.5306 46.7384 90.9236 46.4732C91.1672 46.6388 91.3999 47.0366 91.4586 47.3176C91.9478 49.6635 92.6087 51.7764 93.559 53.9928C95.6358 54.0506 97.9039 54.0087 100.011 54.038C98.3115 52.1296 96.6849 50.0186 95.0514 48.0322L82.7849 33.0134C82.1139 32.2045 78.5413 27.4159 77.8286 27.5182C77.7778 28.3246 78.4053 29.0481 78.9002 29.7554C78.6238 29.9174 78.2322 30.1639 77.948 30.2774C77.5086 30.772 77.7624 51.4956 77.7646 54.0289C79.1263 54.0096 84.4957 53.7574 85.366 54.3085L85.3629 54.596C85.1599 54.7997 84.7192 55.1143 84.4347 55.1111C77.1687 55.0281 69.832 55.3065 62.5885 55.0407C62.4713 55.0364 62.4189 54.7287 62.3901 54.6292L62.5584 54.3371C63.6641 53.695 68.9365 54.0163 70.4824 54.0427L70.5004 22.4887C69.3617 21.7319 67.1315 19.5468 65.8501 18.5292C61.7809 15.2974 55.749 10.7121 51.0322 8.50145C51.7027 7.71435 52.9291 5.5374 53.4722 4.60359C54.2832 5.04075 56.0285 6.39873 56.8173 6.98983C61.7657 10.6632 66.3513 14.7963 70.5121 19.3336L70.5124 2.51607C68.8039 2.56404 67.0322 2.56153 65.3179 2.58249L65.4961 1.44826C67.5842 1.44767 84.792 1.30362 85.2276 1.66684L85.367 1.9297C84.722 2.92933 79.0589 2.64226 77.7208 2.53378C77.7608 7.81678 77.7716 13.1001 77.7536 18.3832C77.7538 21.0429 77.6794 24.2259 77.823 26.8447C79.174 25.6703 80.5324 24.0866 81.7539 22.7484L87.05 16.924C87.5498 16.3648 89.8587 13.636 90.2714 13.4128C91.4426 13.2552 91.0732 12.0495 92.4496 12.1922C92.2064 12.5277 91.8154 12.9357 91.7969 13.2818C91.332 13.9223 90.7274 14.5816 90.1896 15.1745C87.9348 17.6606 85.7485 20.2864 83.364 22.6487C84.8571 24.5478 86.5239 26.4898 88.0957 28.34C95.3091 36.8307 102.331 45.5491 109.575 54.0077C110.837 54.0142 112.183 53.9962 113.437 54.0292C113.468 53.8164 113.632 53.4823 113.708 53.2621C114.936 49.695 116.273 46.1674 117.54 42.6143C117.074 40.7548 105.736 37.6666 103.631 36.9648C102.261 36.5134 100.922 35.9763 99.6198 35.3567C93.7058 32.5131 91.3747 28.5092 91.861 22.0725C92.6826 11.1998 103.261 5.50124 113.23 8.69214C115.72 9.48898 118.627 12.3161 120.909 9.72542C121.14 9.46507 121.526 9.20531 121.875 9.23453C122.319 9.90061 122.109 18.3415 122.098 19.5976C121.628 20.3744 121.707 20.7333 120.753 20.6933C119.436 16.2595 117.566 12.6685 113.371 10.3065C108.375 7.49415 99.5363 9.02628 96.8748 14.3815C94.2396 19.6835 96.1543 25.0751 101.396 27.67C107.47 30.6765 114.56 31.6038 120.441 34.5954ZM105.178 62.7446C106.634 62.8013 108.091 62.8305 109.549 62.8323C115.308 62.4797 118.623 60.5521 120.885 55.0793C115.527 55.1652 110.208 55.1827 104.85 55.1131C101.271 55.0667 97.6575 55.1728 94.0766 55.0757C97.0801 59.6975 99.3889 62.0384 105.178 62.7446ZM121.173 54.0124C121.573 52.0359 121.764 49.247 121.071 47.3477C120.755 46.484 119.507 43.4811 118.392 43.576L118.11 44.1612C117.926 44.9967 114.909 53.4446 114.572 53.8533C115.135 54.1336 120.139 54.0214 121.173 54.0124ZM122.546 31.995L130.29 31.9965C132.969 31.9884 135.815 31.9376 138.477 32.025C136.474 27.1798 134.824 21.762 132.96 16.8418C132.243 14.9494 131.38 12.0213 130.517 10.2869C129.728 12.193 129.034 14.3277 128.325 16.2855L124.894 25.6913C124.332 27.2682 123.264 30.7086 122.546 31.995Z" fill="var(--fill-0, white)"/>
<path id="Vector_2" d="M113.438 54.0292C113.47 53.8164 113.634 53.4822 113.709 53.262C114.938 49.6949 116.274 46.1673 117.541 42.6143C117.901 43.2725 117.98 43.4256 118.111 44.1612C117.928 44.9967 114.91 53.4446 114.573 53.8533L114.352 53.6331C114.457 53.332 114.535 53.0924 114.617 52.7844C113.648 53.3039 114.3 53.5627 113.438 54.0292Z" fill="var(--fill-0, white)"/>
<path id="Vector_3" d="M105.179 62.7441C106.635 62.8008 108.092 62.83 109.549 62.8318C109.075 63.3088 108.334 63.76 108.201 63.9035C107.149 63.9082 106.384 63.925 105.334 63.7773C105.841 63.6146 105.915 63.681 106.217 63.3177C105.982 62.9978 105.593 62.9176 105.179 62.7441Z" fill="var(--fill-0, white)"/>
<path id="Vector_4" d="M187.903 2.52547C186.224 2.5451 181.487 2.71911 180.068 2.54923C179.73 2.21818 179.8 2.38172 179.795 1.90559C180.341 1.36644 181.018 1.40172 181.792 1.40363L229.845 1.44466L245.032 1.44201C246.959 1.44127 252.402 1.19878 253.908 1.77379L254.103 1.9875C253.315 2.90005 247.37 2.66538 246.031 2.52798L246.058 35.4521L246.068 45.9759C246.074 47.9997 246.148 50.4971 246.025 52.4801C247.343 49.9294 248.513 45.3163 249.657 42.5406C249.91 41.9311 250.569 39.901 250.845 39.4666C253.085 37.533 251.725 36.7118 252.5 35.8314L252.561 36.3724L252.779 36.3827C252.8 36.8169 252.44 37.5445 252.261 37.9779L252.405 38.1858C252.056 39.7001 250.946 42.5052 250.393 44.0081C249.17 47.3329 247.967 50.6644 246.781 54.0026C248.774 53.9995 252.301 53.9395 254.418 54.0231C254.55 54.1244 254.661 54.2098 254.752 54.2795C254.869 54.7115 254.903 54.579 254.723 54.9091C254.054 55.3318 246.062 55.1674 244.796 55.1655L235.824 55.1187C235.042 55.1143 231.306 55.2056 230.853 54.9113L230.767 54.4795L230.966 54.25C232.075 53.7973 237.239 54.0122 238.808 54.0327C238.968 36.9019 238.642 19.6412 238.855 2.52872C236.713 2.59528 234.027 2.65314 231.9 2.54849C231.987 3.86603 232.205 14.5255 231.595 15.042C230.939 14.6263 229.704 10.6868 229.014 9.36333C228.382 8.14837 227.613 7.00779 226.725 5.96329C223.028 1.7028 218.577 2.82242 213.74 2.45772L213.777 54.0003C215.016 53.9948 220.559 53.8789 221.451 54.0887C221.635 54.4368 221.6 54.5872 221.57 54.9844C221.197 55.2055 199 55.1996 198.546 54.9757C198.351 54.5109 198.363 54.6982 198.473 54.224C199.288 53.8181 205.153 54.0103 206.515 54.024L206.523 20.2607C206.52 15.0299 206.284 7.64567 206.573 2.53964C200.216 2.56163 195.446 1.93186 191.773 8.28194C190.489 10.4995 188.943 13.84 188.93 16.4097L187.907 16.2996C187.888 11.9841 187.747 6.78935 187.903 2.52547Z" fill="var(--fill-0, white)"/>
<path id="Vector_5" d="M259.813 14.5762C260.219 13.1737 264.664 0.442521 265.249 0.142913C265.67 -0.0734546 266.104 -0.054859 266.555 0.0254301C267.288 0.979159 270.088 9.05855 270.762 10.9198L280.968 39.0164L284.502 48.7713C285.041 50.2411 285.872 52.69 286.521 54.0069C287.844 53.9976 292.039 53.7128 292.8 54.3983L292.848 54.7028C292.537 55.0332 292.113 55.1056 291.673 55.1078C284.966 55.1429 278.255 55.1115 271.547 55.1364C271.183 55.1377 270.647 54.9317 270.37 54.6923C270.325 54.6504 270.364 54.3353 270.37 54.2416L270.294 54.5865L270.517 54.1635C271.956 53.8339 276.813 54.006 278.589 54.0311C276.01 47.0659 273.502 40.0756 271.061 33.0615C270.344 32.8146 270.361 32.7244 270.006 32.1041L270.428 31.99C270.564 31.6324 263.501 12.6137 262.691 10.0914C261.881 12.578 260.838 15.1982 259.957 17.6975L259.802 17.5826C259.001 16.0788 259.937 16.1762 259.813 14.5762Z" fill="var(--fill-0, white)"/>
<path id="Vector_6" d="M38.4712 43.0586C38.7854 43.1752 39.242 43.3659 39.5576 43.4038C34.9225 50.5295 30.7668 55.9208 25.5546 62.57C22.5904 59.135 19.4333 55.9274 16.5419 52.4408C15.9516 51.7291 14.3927 49.8852 13.9834 49.1392L14.6766 48.4923C16.1704 49.3681 23.9531 56.8798 25.2979 58.4198C29.9529 52.8534 33.2772 48.4443 38.4712 43.0586Z" fill="var(--fill-0, white)"/>
<path id="Vector_7" d="M26.3154 13.0662C31.3368 10.6188 36.4473 7.32462 41.0942 4.2326C42.6919 3.16936 45.358 0.969675 46.7714 0.201172C47.6616 1.14649 48.1679 1.97816 48.8758 3.06014C41.7727 7.58541 34.2145 11.3623 26.3239 14.3293C26.4818 13.8655 26.3923 13.5447 26.3154 13.0662Z" fill="var(--fill-0, white)"/>
<path id="Vector_8" d="M8.21484 28.4817C10.8937 28.1968 11.9184 26.9938 14.0198 25.4105C16.211 23.7529 18.4128 22.1093 20.625 20.4796C21.7485 19.6474 23.3883 18.3533 24.5724 17.6924C25.2029 18.49 26.1163 20.1307 26.668 21.0663C21.4573 23.444 16.2342 25.7951 10.999 28.1193C11.1909 30.394 11.124 33.4981 11.1283 35.8162C10.555 36.19 10.3885 36.1961 9.7178 36.2511C9.16852 33.6434 8.86242 31.1265 8.21484 28.4817Z" fill="var(--fill-0, white)"/>
<path id="Vector_9" d="M255.802 25.7975C256.178 24.0279 257.534 20.883 258.164 19.0548C258.575 17.8636 259.326 15.6214 259.814 14.5762C259.939 16.1762 259.002 16.0788 259.804 17.5826L259.958 17.6974C258.507 21.7967 256.929 25.8739 255.496 29.9709C255.317 30.4401 254.856 31.4779 254.916 31.9136L255.017 32.0503C254.813 32.479 254.772 32.5751 254.696 33.0402C253.619 33.4453 253.181 37.3216 252.406 38.1856L252.262 37.9777C252.441 37.5443 252.801 36.8167 252.78 36.3825L252.562 36.3722L252.501 35.8313C251.726 36.7116 253.086 37.5328 250.846 39.4664C251.003 38.9002 251.276 38.1481 251.496 37.5927C252.986 33.8085 254.107 29.4506 255.802 25.7975Z" fill="var(--fill-0, white)"/>
<path id="Vector_10" d="M187.907 16.2998L188.93 16.4099L188.906 42.0369L188.724 41.8442C188.284 41.8887 188.152 41.8809 187.821 42.1579C188.02 41.4341 187.915 35.9429 187.913 34.7266L187.907 16.2998Z" fill="var(--fill-0, white)"/>
<path id="Vector_11" d="M99.6821 3.14118L99.877 2.75553C98.8695 1.96134 93.4223 3.38766 92.6377 2.07263C92.7437 1.61023 92.6401 1.74837 93.018 1.50293C94.8856 1.43518 106.612 1.25247 107.545 1.66159C107.681 2.00267 107.657 1.87633 107.489 2.29386C106.679 2.83655 102.73 2.56425 101.526 2.59362C101.224 2.95492 100.671 3.6635 100.322 3.90658L99.8669 3.90688C99.8488 3.58218 99.8427 3.5103 99.7119 3.20893L99.6821 3.14118Z" fill="var(--fill-0, white)"/>
<path id="Vector_12" d="M255.016 32.0499C258.184 31.9494 261.466 31.9922 264.639 31.9716C265.766 31.9643 269.063 31.917 270.007 32.1037C270.361 32.724 270.345 32.8142 271.062 33.0611C265.607 33.0893 260.15 33.0822 254.695 33.0398C254.771 32.5748 254.813 32.4787 255.016 32.0499Z" fill="var(--fill-0, white)"/>
<path id="Vector_13" d="M41.4345 28.5696C45.3624 25.5954 48.0165 21.2488 49.6137 16.7345C49.6887 16.5228 49.8122 16.1884 49.9993 16.0674C49.0614 20.4591 46.4848 25.1064 43.5555 28.5203C43.0192 29.1454 42.4721 29.8965 41.6432 29.4134C40.828 28.1093 40.1665 23.1895 39.8818 21.362L40.2982 21.8851C40.6978 21.8917 40.5998 21.8751 40.9911 21.6549C40.9444 24.63 41.1093 25.6571 41.4345 28.5696Z" fill="var(--fill-0, white)"/>
<path id="Vector_14" d="M38.4697 43.0582C39.0614 42.5024 40.0072 41.6338 40.4181 40.9712C41.2813 39.5791 41.1514 39.518 42.6104 38.7461C43.3075 40.3821 45.0826 44.3786 45.5152 46.0245C45.5539 46.4155 45.6568 47.2218 45.6342 47.58C45.0007 46.8864 41.7526 41.612 41.2903 40.6447C40.6912 41.5511 40.1129 42.4708 39.5561 43.4035C39.2406 43.3655 38.784 43.1748 38.4697 43.0582Z" fill="var(--fill-0, white)"/>
<path id="Vector_15" d="M99.6818 3.14062L99.7116 3.20837C99.8424 3.50975 99.8485 3.58162 99.8666 3.90632L100.322 3.90603C99.3122 5.10845 92.5676 12.8285 91.7979 13.2811C91.8165 12.935 92.2075 12.5271 92.4506 12.1916C91.0743 12.0489 91.4436 13.2545 90.2725 13.4122C91.0863 12.3255 93.422 9.87444 94.3848 8.82256C95.9732 7.08734 98.0141 4.6977 99.6818 3.14062Z" fill="var(--fill-0, white)"/>
<path id="Vector_16" d="M34.4118 18.334L34.5375 18.5152C33.6019 19.3882 31.5695 22.0412 30.596 22.1873L30.375 21.9204C29.92 21.3795 29.6068 20.8562 29.2314 20.2599C30.9554 19.6008 32.6909 19.012 34.4118 18.334Z" fill="var(--fill-0, white)"/>
<path id="Vector_17" d="M39.6631 16.3809C40.2415 16.4457 40.9245 16.5414 41.4984 16.5501C41.2996 18.2557 41.0894 19.9403 40.9892 21.6556C40.5979 21.8758 40.6959 21.8925 40.2963 21.8858L39.88 21.3628C39.728 19.8994 39.683 17.8873 39.6631 16.3809Z" fill="var(--fill-0, white)"/>
<path id="Vector_18" d="M15.5771 18.0866C16.7869 17.3637 18.6682 16.6544 20.0098 16.0531C22.1234 15.0821 24.2253 14.0862 26.315 13.0654C26.3919 13.5439 26.4814 13.8648 26.3234 14.3285C23.4648 15.4692 18.5134 17.2999 15.5771 18.0866Z" fill="var(--fill-0, white)"/>
<path id="Vector_19" d="M77.9492 30.2769C78.2335 30.1634 78.6251 29.9169 78.9014 29.7549C79.5697 30.6729 84.4404 38.1326 84.5942 38.9664C83.8541 38.188 82.3347 35.9343 81.6081 34.9254C80.5121 33.4041 78.9622 31.719 77.9492 30.2769Z" fill="var(--fill-0, white)"/>
<path id="Vector_20" d="M9.71777 36.2504C10.3885 36.1953 10.555 36.1893 11.1283 35.8154C11.1287 36.7501 11.335 42.732 10.9738 43.1214L11.1237 43.125L11.0215 43.2175L10.9696 43.1077L11.1172 43.1257L11.1312 43.0356L10.917 42.9378C10.4723 40.8332 10.213 38.1907 9.71777 36.2504Z" fill="var(--fill-0, white)"/>
<path id="Vector_21" d="M65.3184 2.58232C64.374 2.6201 63.1772 2.80444 62.4696 2.18397L62.4678 1.94916C63.2401 1.24397 64.4482 1.42654 65.4966 1.44809L65.3184 2.58232Z" fill="var(--fill-0, white)"/>
<path id="Vector_22" d="M120.754 20.6934C121.709 20.7334 121.629 20.3744 122.1 19.5977C122.123 20.4401 122.288 22.1694 121.713 22.7751C121.045 22.6072 120.929 21.3441 120.754 20.6934Z" fill="var(--fill-0, white)"/>
<path id="Vector_23" d="M13.9821 49.1395C12.9755 47.7265 12.1557 47.1528 11.1982 45.374C12.2611 46.4547 13.5188 47.497 14.6754 48.4926L13.9821 49.1395Z" fill="var(--fill-0, white)"/>
<path id="Vector_24" d="M45.5166 46.0254C45.7869 46.6755 46.6444 48.5439 46.7143 49.1393C46.4068 48.8078 45.7427 48.0075 45.6356 47.5808C45.6582 47.2226 45.5553 46.4164 45.5166 46.0254Z" fill="var(--fill-0, white)"/>
</g>
<defs>
<clipPath id="clip0_0_159">
<rect width="304" height="80" fill="white"/>
</clipPath>
</defs>
</svg>
