<svg preserveAspectRatio="none" width="100%" height="100%" overflow="visible" style="display: block;" viewBox="0 0 18 18" fill="none" xmlns="http://www.w3.org/2000/svg">
<g id="Group">
<path id="Vector" d="M9.00002 5.69884C7.17843 5.69884 5.69884 7.17843 5.69884 9.00002C5.69884 10.8216 7.17843 12.3048 9.00002 12.3048C10.8216 12.3048 12.3048 10.8216 12.3048 9.00002C12.3048 7.17843 10.8216 5.69884 9.00002 5.69884Z" fill="var(--fill-0, white)"/>
<path id="Vector_2" d="M13.9823 0H4.01758C1.80359 0 0 1.80359 0 4.01758V13.9823C0 16.1999 1.80359 17.9999 4.01758 17.9999H13.9823C16.1999 17.9999 17.9999 16.1999 17.9999 13.9823V4.01758C17.9999 1.80359 16.1999 0 13.9823 0ZM8.99995 14.8319C5.78517 14.8319 3.16798 12.2147 3.16798 8.99995C3.16798 5.78517 5.78517 3.17158 8.99995 3.17158C12.2147 3.17158 14.8319 5.78517 14.8319 8.99995C14.8319 12.2147 12.2147 14.8319 8.99995 14.8319ZM14.9543 4.22998C14.2739 4.22998 13.7195 3.67918 13.7195 2.99878C13.7195 2.31839 14.2739 1.76399 14.9543 1.76399C15.6347 1.76399 16.1891 2.31839 16.1891 2.99878C16.1891 3.67918 15.6347 4.22998 14.9543 4.22998Z" fill="var(--fill-0, white)"/>
</g>
</svg>
