<svg preserveAspectRatio="none" width="100%" height="100%" overflow="visible" style="display: block;" viewBox="0 0 189 61" fill="none" xmlns="http://www.w3.org/2000/svg">
<g id="logo">
<path id="Vector" d="M74.8798 32.7377C75.9199 30.1397 81.9351 12.2054 82.8207 11.21C83.4799 11.0949 83.8148 11.5177 84.0385 12.0882C84.4192 13.0591 84.7427 14.058 85.0995 15.0393L87.3727 21.2468L95.9227 44.8031L96.9683 44.8333L96.9932 22.4064C96.9932 19.3362 96.9064 15.8026 97.0052 12.7804C95.5471 12.7955 93.9155 12.8261 92.4435 12.8216C92.2342 12.8209 92.1495 12.7145 91.9909 12.5888C91.9041 12.361 91.9007 12.4486 91.9776 12.2517C92.5395 12.0205 100.457 12.0808 101.589 12.1228C103.27 14.6729 116.14 37.0253 116.77 37.445C116.976 37.2726 117.058 37.2774 117.331 37.2497L117.444 37.3697C117.468 38.4992 117.588 45.6636 117.327 46.1583C116.356 46.3886 114.954 43.4038 114.467 42.5973C113.228 40.5602 112.002 38.5153 110.788 36.4625L101.257 20.5803C100.192 18.8156 98.754 16.1768 97.6392 14.5335C97.7905 24.572 97.5007 34.7751 97.6779 44.8221C98.3848 44.8164 102.371 44.7228 102.703 44.9334L102.757 45.0073C102.725 45.1622 102.705 45.3336 102.545 45.3842C101.783 45.6262 100.046 45.5393 99.2966 45.543C97.3522 45.554 95.4077 45.5529 93.4633 45.5403C91.4478 45.5279 88.0691 45.622 86.1772 45.4636C85.9851 45.2919 86.0299 45.383 86.0127 45.1221C86.4219 44.587 90.1158 44.8154 90.9921 44.8277C89.7044 40.7484 87.8158 35.8154 86.3293 31.7705L75.9642 31.791C75.8148 32.2131 75.6352 32.684 75.501 33.1056C80.4646 36.3931 79.7979 43.5331 76.1598 47.497C73.8996 49.9597 70.5804 51.1351 67.2696 50.9807C66.6157 50.9837 66.1401 50.9942 65.4868 50.9022C63.0108 51.2043 60.2395 49.1372 57.8304 49.3982C57.2878 49.457 57.094 50.5274 56.3381 50.2477C56.1539 47.1784 56.3757 43.8897 56.298 40.8029C56.2907 40.5147 56.2841 40.2961 56.5284 40.131C56.6799 40.2341 56.8246 40.4817 56.861 40.6566C57.1652 42.1168 57.5761 43.432 58.1669 44.8116C59.458 44.8476 60.8681 44.8215 62.1781 44.8397C61.1216 43.6518 60.1103 42.3379 59.0947 41.1014L51.4685 31.753C51.0513 31.2495 48.8302 28.2688 48.3871 28.3325C48.3556 28.8344 48.7457 29.2848 49.0533 29.725C48.8815 29.8259 48.6381 29.9793 48.4613 30.0499C48.1882 30.3578 48.346 43.2572 48.3474 44.8341C49.1939 44.822 52.5321 44.665 53.0732 45.0081L53.0712 45.187C52.9451 45.3138 52.6711 45.5097 52.4942 45.5077C47.9768 45.456 43.4155 45.6293 38.9122 45.4638C38.8393 45.4612 38.8067 45.2696 38.7888 45.2077L38.8935 45.0259C39.5809 44.6262 42.8588 44.8262 43.8199 44.8426L43.8311 25.2019C43.1232 24.7308 41.7366 23.3707 40.94 22.7373C38.4101 20.7257 34.66 17.8715 31.7275 16.4955C32.1444 16.0056 32.9069 14.6506 33.2445 14.0693C33.7487 14.3414 34.8338 15.1867 35.3242 15.5546C38.4007 17.8411 41.2516 20.4138 43.8384 23.238L43.8386 12.7699C42.7764 12.7998 41.6749 12.7982 40.6091 12.8113L40.7199 12.1053C42.0181 12.1049 52.7163 12.0153 52.9872 12.2413L53.0738 12.405C52.6729 13.0272 49.152 12.8485 48.3201 12.781C48.345 16.0694 48.3517 19.3579 48.3405 22.6464C48.3406 24.302 48.2944 26.2832 48.3836 27.9133C49.2236 27.1823 50.0681 26.1965 50.8275 25.3635L54.1202 21.7381C54.4309 21.3901 55.8664 19.6915 56.1229 19.5526C56.8511 19.4545 56.6215 18.704 57.4771 18.7929C57.326 19.0017 57.0829 19.2556 57.0713 19.471C56.7823 19.8697 56.4064 20.2801 56.0721 20.6491C54.6703 22.1966 53.311 23.8311 51.8285 25.3015C52.7568 26.4836 53.7931 27.6923 54.7703 28.844C59.2549 34.129 63.6205 39.5558 68.1242 44.8209C68.9089 44.8249 69.7455 44.8137 70.5252 44.8343C70.5447 44.7018 70.6465 44.4938 70.6937 44.3567C71.4574 42.1364 72.2883 39.9407 73.076 37.7291C72.7867 36.5716 65.7377 34.6494 64.429 34.2125C63.5773 33.9315 62.7443 33.5972 61.935 33.2116C58.2581 31.4415 56.8089 28.9494 57.1112 24.9428C57.622 18.1752 64.1986 14.6281 70.3966 16.6142C71.9444 17.1102 73.752 18.8699 75.1706 17.2574C75.3144 17.0953 75.554 16.9337 75.7712 16.9518C76.0475 17.3664 75.9166 22.6204 75.9102 23.4023C75.6178 23.8858 75.6671 24.1092 75.0735 24.0843C74.2549 21.3246 73.0921 19.0893 70.484 17.6191C67.3784 15.8685 61.883 16.8222 60.2283 20.1555C58.59 23.4558 59.7804 26.8118 63.0394 28.427C66.8156 30.2984 71.2236 30.8756 74.8798 32.7377ZM65.3905 50.2591C66.2958 50.2944 67.2017 50.3126 68.1077 50.3137C71.6882 50.0942 73.7495 48.8944 75.1558 45.4879C71.8244 45.5414 68.518 45.5522 65.1867 45.5089C62.9617 45.48 60.715 45.5461 58.4887 45.4856C60.356 48.3624 61.7914 49.8195 65.3905 50.2591ZM75.3346 44.8238C75.5838 43.5935 75.7022 41.8576 75.2711 40.6753C75.0751 40.1377 74.2988 38.2686 73.6057 38.3277L73.4305 38.6919C73.3161 39.212 71.4403 44.4704 71.2308 44.7248C71.5809 44.8992 74.6918 44.8294 75.3346 44.8238ZM76.1885 31.1191L81.0029 31.12C82.6683 31.115 84.4381 31.0834 86.0931 31.1377C84.8474 28.1218 83.8218 24.7496 82.6629 21.687C82.2171 20.509 81.6804 18.6865 81.1438 17.6069C80.6534 18.7933 80.2223 20.1221 79.781 21.3407L77.6482 27.1953C77.2988 28.1769 76.6349 30.3184 76.1885 31.1191Z" fill="var(--fill-0, white)"/>
<path id="Vector_2" d="M70.5256 44.8343C70.5451 44.7018 70.6469 44.4938 70.694 44.3567C71.4578 42.1364 72.2887 39.9407 73.0764 37.7291C73.2998 38.1388 73.3491 38.234 73.4308 38.6919C73.3165 39.212 71.4407 44.4704 71.2311 44.7248L71.0933 44.5877C71.159 44.4003 71.2074 44.2512 71.2583 44.0595C70.6556 44.3828 71.0611 44.5439 70.5256 44.8343Z" fill="var(--fill-0, white)"/>
<path id="Vector_3" d="M65.3909 50.2591C66.2962 50.2944 67.2021 50.3126 68.1081 50.3137C67.8133 50.6106 67.3528 50.8915 67.27 50.9807C66.616 50.9837 66.1405 50.9942 65.4872 50.9022C65.8028 50.801 65.8483 50.8423 66.0361 50.6161C65.8901 50.4171 65.6482 50.3671 65.3909 50.2591Z" fill="var(--fill-0, white)"/>
<path id="Vector_4" d="M116.821 12.7759C115.777 12.7881 112.832 12.8964 111.95 12.7907C111.74 12.5846 111.783 12.6864 111.78 12.3901C112.12 12.0545 112.541 12.0764 113.022 12.0776L142.897 12.1032L152.339 12.1015C153.537 12.1011 156.921 11.9501 157.857 12.308L157.978 12.4411C157.488 13.0091 153.792 12.863 152.96 12.7775L152.976 33.2711L152.983 39.8216C152.987 41.0813 153.033 42.6358 152.956 43.8701C153.776 42.2825 154.503 39.4111 155.214 37.6833C155.371 37.3039 155.781 36.0403 155.953 35.7699C157.345 34.5663 156.5 34.0552 156.982 33.5072L157.019 33.8439L157.155 33.8503C157.168 34.1206 156.945 34.5735 156.833 34.8432L156.923 34.9727C156.706 35.9152 156.015 37.6613 155.672 38.5967C154.912 40.6662 154.163 42.74 153.426 44.8178C154.665 44.8159 156.858 44.7785 158.174 44.8306C158.256 44.8936 158.325 44.9468 158.382 44.9902C158.455 45.2591 158.476 45.1766 158.364 45.3821C157.948 45.6452 152.979 45.5428 152.192 45.5416L146.614 45.5125C146.128 45.5098 143.805 45.5666 143.524 45.3835L143.47 45.1146L143.594 44.9718C144.283 44.69 147.494 44.8238 148.469 44.8366C148.569 34.1735 148.366 23.4296 148.499 12.7779C147.167 12.8194 145.497 12.8554 144.174 12.7902C144.229 13.6104 144.364 20.2453 143.985 20.5668C143.577 20.308 142.809 17.8559 142.38 17.0321C141.987 16.2759 141.509 15.5659 140.957 14.9158C138.658 12.2638 135.892 12.9608 132.884 12.7338L132.907 44.8164C133.678 44.813 137.124 44.7408 137.678 44.8714C137.793 45.0881 137.771 45.1817 137.752 45.4289C137.521 45.5665 123.72 45.5629 123.438 45.4235C123.317 45.1342 123.324 45.2508 123.393 44.9556C123.899 44.703 127.545 44.8226 128.393 44.8311L128.397 23.8152C128.395 20.5593 128.249 15.963 128.429 12.7847C124.476 12.7984 121.511 12.4064 119.227 16.359C118.429 17.7393 117.468 19.8187 117.46 21.4182L116.824 21.3496C116.812 18.6634 116.724 15.43 116.821 12.7759Z" fill="var(--fill-0, white)"/>
<path id="Vector_5" d="M161.529 20.277C161.781 19.404 164.544 11.4795 164.908 11.293C165.17 11.1583 165.44 11.1699 165.72 11.2199C166.176 11.8135 167.917 16.8425 168.336 18.0011L174.681 35.4898L176.878 41.5617C177.213 42.4766 177.73 44.0008 178.133 44.8206C178.956 44.8148 181.564 44.6375 182.037 45.0642L182.067 45.2537C181.874 45.4594 181.61 45.5044 181.337 45.5058C177.166 45.5277 172.994 45.5081 168.824 45.5236C168.598 45.5245 168.264 45.3962 168.092 45.2472C168.064 45.2211 168.088 45.025 168.092 44.9666L168.045 45.1813L168.183 44.9181C169.078 44.7129 172.098 44.82 173.202 44.8356C171.599 40.5001 170.039 36.149 168.522 31.7831C168.076 31.6294 168.086 31.5733 167.866 31.1872L168.128 31.1162C168.213 30.8936 163.822 19.0554 163.318 17.4854C162.814 19.0332 162.166 20.6641 161.618 22.2198L161.522 22.1483C161.024 21.2123 161.606 21.2729 161.529 20.277Z" fill="var(--fill-0, white)"/>
<path id="Vector_6" d="M23.9177 38.0059C24.113 38.0785 24.3969 38.1972 24.5931 38.2208C21.7114 42.6562 19.1278 46.012 15.8873 50.1508C14.0444 48.0127 12.0816 46.0161 10.284 43.8459C9.91699 43.4029 8.9478 42.2552 8.69336 41.7908L9.12435 41.3881C10.053 41.9333 14.8916 46.609 15.7277 47.5675C18.6218 44.1027 20.6885 41.3583 23.9177 38.0059Z" fill="var(--fill-0, white)"/>
<path id="Vector_7" d="M16.3604 19.3368C19.4822 17.8135 22.6595 15.763 25.5484 13.8384C26.5418 13.1766 28.1993 11.8074 29.0781 11.329C29.6315 11.9174 29.9463 12.4351 30.3864 13.1086C25.9703 15.9253 21.2713 18.2762 16.3656 20.123C16.4638 19.8344 16.4082 19.6347 16.3604 19.3368Z" fill="var(--fill-0, white)"/>
<path id="Vector_8" d="M5.10742 28.9322C6.77292 28.7549 7.40997 28.0061 8.71644 27.0205C10.0787 25.9888 11.4476 24.9657 12.8229 23.9513C13.5214 23.4333 14.5409 22.6278 15.2771 22.2164C15.6691 22.7129 16.2369 23.7341 16.5799 24.3165C13.3404 25.7965 10.0931 27.2599 6.83835 28.7067C6.95765 30.1225 6.91606 32.0547 6.91877 33.4975C6.56232 33.7302 6.45882 33.734 6.04183 33.7683C5.70034 32.1451 5.51003 30.5785 5.10742 28.9322Z" fill="var(--fill-0, white)"/>
<path id="Vector_9" d="M159.035 27.2617C159.268 26.1602 160.111 24.2027 160.503 23.0647C160.758 22.3232 161.225 20.9276 161.529 20.277C161.607 21.2729 161.024 21.2123 161.523 22.1483L161.619 22.2198C160.716 24.7714 159.735 27.3093 158.844 29.8594C158.733 30.1515 158.447 30.7975 158.484 31.0687L158.546 31.1537C158.42 31.4206 158.394 31.4804 158.347 31.7699C157.677 32.0221 157.405 34.4349 156.923 34.9727L156.834 34.8432C156.945 34.5735 157.169 34.1206 157.156 33.8503L157.02 33.8439L156.982 33.5072C156.5 34.0552 157.346 34.5663 155.953 35.7699C156.051 35.4175 156.221 34.9493 156.357 34.6036C157.284 32.2481 157.981 29.5356 159.035 27.2617Z" fill="var(--fill-0, white)"/>
<path id="Vector_10" d="M116.824 21.3496L117.46 21.4182L117.445 37.3697L117.332 37.2497C117.058 37.2774 116.976 37.2726 116.771 37.445C116.894 36.9945 116.829 33.5765 116.828 32.8194L116.824 21.3496Z" fill="var(--fill-0, white)"/>
<path id="Vector_11" d="M61.9732 13.1591L62.0944 12.919C61.468 12.4247 58.0814 13.3125 57.5936 12.494C57.6595 12.2062 57.5951 12.2921 57.83 12.1394C58.9912 12.0972 66.2817 11.9835 66.8615 12.2381C66.9463 12.4504 66.9313 12.3718 66.8269 12.6317C66.3232 12.9695 63.868 12.8 63.1194 12.8183C62.9316 13.0432 62.588 13.4842 62.3709 13.6355L62.0881 13.6357C62.0768 13.4336 62.073 13.3889 61.9917 13.2013L61.9732 13.1591Z" fill="var(--fill-0, white)"/>
<path id="Vector_12" d="M158.546 31.1537C160.515 31.0912 162.556 31.1178 164.529 31.1049C165.229 31.1004 167.279 31.071 167.866 31.1872C168.086 31.5733 168.076 31.6294 168.522 31.7831C165.13 31.8007 161.738 31.7963 158.347 31.7699C158.394 31.4804 158.419 31.4206 158.546 31.1537Z" fill="var(--fill-0, white)"/>
<path id="Vector_13" d="M25.7602 28.9874C28.2023 27.1361 29.8523 24.4306 30.8453 21.6206C30.8919 21.4889 30.9687 21.2807 31.0851 21.2054C30.5019 23.939 28.9 26.8317 27.0789 28.9567C26.7455 29.3458 26.4053 29.8133 25.89 29.5126C25.3831 28.7009 24.9719 25.6386 24.7949 24.5011L25.0538 24.8266C25.3022 24.8308 25.2413 24.8204 25.4846 24.6833C25.4555 26.5352 25.558 27.1745 25.7602 28.9874Z" fill="var(--fill-0, white)"/>
<path id="Vector_14" d="M23.917 38.0059C24.2848 37.66 24.8729 37.1193 25.1283 36.7068C25.665 35.8403 25.5842 35.8023 26.4913 35.3218C26.9247 36.3402 28.0283 38.8278 28.2972 39.8523C28.3213 40.0956 28.3853 40.5975 28.3712 40.8205C27.9774 40.3888 25.958 37.1057 25.6706 36.5036C25.2981 37.0678 24.9386 37.6403 24.5924 38.2208C24.3962 38.1972 24.1124 38.0785 23.917 38.0059Z" fill="var(--fill-0, white)"/>
<path id="Vector_15" d="M61.9729 13.1591L61.9915 13.2013C62.0728 13.3889 62.0765 13.4336 62.0878 13.6357L62.3707 13.6355C61.7431 14.384 57.55 19.1893 57.0715 19.471C57.083 19.2556 57.3261 19.0017 57.4772 18.7929C56.6216 18.704 56.8512 19.4545 56.123 19.5526C56.629 18.8762 58.0812 17.3505 58.6797 16.6958C59.6673 15.6157 60.9361 14.1283 61.9729 13.1591Z" fill="var(--fill-0, white)"/>
<path id="Vector_16" d="M21.3943 22.6159L21.4725 22.7287C20.8908 23.2721 19.6272 24.9235 19.022 25.0144L18.8846 24.8483C18.6017 24.5116 18.407 24.1859 18.1736 23.8147C19.2454 23.4044 20.3244 23.038 21.3943 22.6159Z" fill="var(--fill-0, white)"/>
<path id="Vector_17" d="M24.6592 21.4001C25.0188 21.4404 25.4434 21.5 25.8002 21.5054C25.6766 22.5671 25.5459 23.6156 25.4837 24.6833C25.2404 24.8204 25.3013 24.8308 25.0529 24.8266L24.794 24.5011C24.6995 23.5902 24.6715 22.3378 24.6592 21.4001Z" fill="var(--fill-0, white)"/>
<path id="Vector_18" d="M9.68457 22.4622C10.4367 22.0123 11.6063 21.5708 12.4404 21.1965C13.7544 20.5921 15.0612 19.9722 16.3604 19.3368C16.4082 19.6346 16.4638 19.8344 16.3656 20.123C14.5884 20.8331 11.5101 21.9726 9.68457 22.4622Z" fill="var(--fill-0, white)"/>
<path id="Vector_19" d="M48.4617 30.0499C48.6384 29.9793 48.8819 29.8259 49.0537 29.725C49.4692 30.2964 52.4973 34.9397 52.5929 35.4587C52.1328 34.9742 51.1882 33.5714 50.7364 32.9434C50.0551 31.9964 49.0915 30.9476 48.4617 30.0499Z" fill="var(--fill-0, white)"/>
<path id="Vector_20" d="M6.04184 33.7683C6.45883 33.734 6.56233 33.7302 6.91878 33.4975C6.91902 34.0793 7.04727 37.8027 6.8227 38.0452L6.91592 38.0474L6.85237 38.105L6.82013 38.0366L6.91189 38.0478L6.92057 37.9917L6.78743 37.9309C6.51092 36.6208 6.34973 34.9761 6.04184 33.7683Z" fill="var(--fill-0, white)"/>
<path id="Vector_21" d="M40.6092 12.8113C40.022 12.8348 39.2779 12.9495 38.838 12.5633L38.8369 12.4172C39.3171 11.9782 40.0682 12.0919 40.72 12.1053L40.6092 12.8113Z" fill="var(--fill-0, white)"/>
<path id="Vector_22" d="M75.0742 24.0843C75.6678 24.1092 75.6185 23.8858 75.9109 23.4023C75.9253 23.9267 76.0278 25.0031 75.6706 25.3801C75.2553 25.2756 75.183 24.4894 75.0742 24.0843Z" fill="var(--fill-0, white)"/>
<path id="Vector_23" d="M8.69269 41.7908C8.06687 40.9113 7.55716 40.5542 6.96191 39.447C7.62268 40.1196 8.40464 40.7684 9.12367 41.3881L8.69269 41.7908Z" fill="var(--fill-0, white)"/>
<path id="Vector_24" d="M28.2979 39.8523C28.4659 40.257 28.999 41.4199 29.0425 41.7905C28.8513 41.5842 28.4384 41.0861 28.3719 40.8205C28.3859 40.5975 28.3219 40.0957 28.2979 39.8523Z" fill="var(--fill-0, white)"/>
</g>
</svg>
