<svg preserveAspectRatio="none" width="100%" height="100%" overflow="visible" style="display: block;" viewBox="0 0 26.2489 26.2513" fill="none" xmlns="http://www.w3.org/2000/svg">
<g id="Group">
<path id="Vector" d="M0.272618 25.9763C0.359687 26.0635 0.463082 26.1326 0.576893 26.1798C0.690703 26.227 0.812697 26.2513 0.935899 26.2513C1.0591 26.2513 1.1811 26.227 1.29491 26.1798C1.40872 26.1326 1.51211 26.0635 1.59918 25.9763L13.1211 14.4544L24.6476 25.9763C24.8235 26.1522 25.0621 26.251 25.3109 26.251C25.5597 26.251 25.7983 26.1522 25.9742 25.9763C26.1501 25.8004 26.2489 25.5618 26.2489 25.313C26.2489 25.0642 26.1501 24.8257 25.9742 24.6497L14.4476 13.1279L25.9695 1.6013C26.1454 1.42539 26.2442 1.1868 26.2442 0.938021C26.2442 0.689243 26.1454 0.450653 25.9695 0.27474C25.7936 0.0988269 25.555 0 25.3062 0C25.0574 0 24.8188 0.0988269 24.6429 0.27474L13.1211 11.8013L1.59449 0.279428C1.41515 0.12584 1.18445 0.0455847 0.948506 0.0546983C0.712559 0.0638119 0.488741 0.161623 0.321777 0.328587C0.154814 0.495551 0.0570024 0.719369 0.0478888 0.955315C0.0387752 1.19126 0.119031 1.42196 0.272618 1.6013L11.7945 13.1279L0.272618 24.6544C0.0980079 24.8301 0 25.0677 0 25.3154C0 25.563 0.0980079 25.8006 0.272618 25.9763Z" fill="var(--fill-0, white)"/>
</g>
</svg>
